<svg width="25" height="33" viewBox="0 0 25 33" fill="none" xmlns="http://www.w3.org/2000/svg">
<path id="Vector" d="M21.1475 10.7193H19.6552V7.65385C19.6552 3.42353 16.3124 -0.00976562 12.1935 -0.00976562C8.07469 -0.00976562 4.73187 3.42353 4.73187 7.65385V10.7193H3.23954C1.59798 10.7193 0.254883 12.0987 0.254883 13.7847V29.112C0.254883 30.798 1.59798 32.1774 3.23954 32.1774H21.1475C22.7891 32.1774 24.1322 30.798 24.1322 29.112V13.7847C24.1322 12.0987 22.7891 10.7193 21.1475 10.7193ZM12.1935 24.5138C10.552 24.5138 9.20886 23.1344 9.20886 21.4484C9.20886 19.7624 10.552 18.3829 12.1935 18.3829C13.8351 18.3829 15.1782 19.7624 15.1782 21.4484C15.1782 23.1344 13.8351 24.5138 12.1935 24.5138ZM16.8197 10.7193H7.5673V7.65385C7.5673 5.03289 9.64164 2.90241 12.1935 2.90241C14.7454 2.90241 16.8197 5.03289 16.8197 7.65385V10.7193Z" fill="black"/>
</svg>
